<?xml version="1.0" standalone="no"?><!DOCTYPE svg PUBLIC "-//W3C//DTD SVG 1.1//EN" "http://www.w3.org/Graphics/SVG/1.1/DTD/svg11.dtd"><svg height="166" node-id="1" sillyvg="true" template-height="166" template-width="160" version="1.1" viewBox="0 0 160 166" width="160" xmlns="http://www.w3.org/2000/svg" xmlns:xlink="http://www.w3.org/1999/xlink"><defs node-id="33"><linearGradient gradientUnits="objectBoundingBox" id="linearGradient-1" node-id="5" spreadMethod="pad" x1="1" x2="0.32677394" y1="-0.098457776" y2="0.7279418"><stop offset="0" stop-color="#81e6ff"></stop><stop offset="1" stop-color="#409eff"></stop></linearGradient><linearGradient gradientUnits="objectBoundingBox" id="linearGradient-2" node-id="8" spreadMethod="pad" x1="1" x2="0" y1="0" y2="1"><stop offset="0" stop-color="#979797" stop-opacity="0"></stop><stop offset="1" stop-color="#ffffff" stop-opacity="0.3809456"></stop></linearGradient><linearGradient gradientUnits="objectBoundingBox" id="linearGradient-3" node-id="11" spreadMethod="pad" x1="0.5" x2="0.5" y1="0" y2="1"><stop offset="0" stop-color="#ffffff" stop-opacity="0.2777885"></stop><stop offset="1" stop-color="#ffffff" stop-opacity="0.6"></stop></linearGradient><linearGradient gradientUnits="objectBoundingBox" id="linearGradient-4" node-id="14" spreadMethod="pad" x1="0.5" x2="0.5" y1="0.5523307" y2="1.0623928"><stop offset="0" stop-color="#ffffff" stop-opacity="0"></stop><stop offset="1" stop-color="#ffffff" stop-opacity="0.72196054"></stop></linearGradient><linearGradient gradientUnits="objectBoundingBox" id="linearGradient-5" node-id="17" spreadMethod="pad" x1="0.5" x2="0.5" y1="0" y2="1"><stop offset="0" stop-color="#ffffff" stop-opacity="0.2777885"></stop><stop offset="1" stop-color="#ffffff" stop-opacity="0.6"></stop></linearGradient><linearGradient gradientUnits="objectBoundingBox" id="linearGradient-6" node-id="20" spreadMethod="pad" x1="0.5" x2="0.5" y1="0.6032869" y2="1.180264"><stop offset="0" stop-color="#ffffff" stop-opacity="0"></stop><stop offset="1" stop-color="#ffffff" stop-opacity="0.72196054"></stop></linearGradient></defs><g node-id="70"><g node-id="71"><path d="M 40.00 0.00 L 120.00 0.00 L 128.10 0.80 L 135.60 3.10 L 142.40 6.80 L 145.40 9.10 L 150.90 14.60 L 155.20 20.90 L 158.20 28.10 L 159.20 31.90 L 160.00 40.00 L 160.00 126.00 L 159.20 134.10 L 158.20 137.90 L 155.20 145.10 L 150.90 151.40 L 145.40 156.90 L 139.10 161.20 L 135.60 162.90 L 128.10 165.20 L 124.20 165.80 L 120.00 166.00 L 40.00 166.00 L 31.90 165.20 L 24.40 162.90 L 17.60 159.20 L 14.60 156.90 L 9.10 151.40 L 4.80 145.10 L 1.80 137.90 L 0.80 134.10 L 0.00 126.00 L 0.00 40.00 L 0.80 31.90 L 1.80 28.10 L 4.80 20.90 L 9.10 14.60 L 14.60 9.10 L 20.90 4.80 L 28.10 1.80 L 35.80 0.20 L 40.00 0.00 Z" fill="#304b68" fill-rule="evenodd" group-id="1,2" id="框" node-id="26" stroke="none" target-height="166" target-width="160" target-x="0" target-y="0"></path><g node-id="72"><path d="M 80.00 24.00 L 89.80 24.80 L 94.40 25.70 L 103.40 28.70 L 111.60 33.00 L 115.40 35.60 L 120.20 39.50 L 124.50 43.80 L 128.40 48.60 L 133.30 56.40 L 135.30 60.60 L 138.30 69.60 L 139.20 74.20 L 140.00 84.00 L 139.20 93.80 L 138.30 98.40 L 135.30 107.40 L 131.00 115.60 L 128.40 119.40 L 124.50 124.20 L 120.20 128.50 L 115.40 132.40 L 107.60 137.30 L 99.00 140.90 L 94.40 142.30 L 85.00 143.80 L 80.00 144.00 L 75.00 143.80 L 70.20 143.20 L 61.00 140.90 L 56.60 139.30 L 48.40 135.00 L 44.60 132.40 L 39.80 128.50 L 35.50 124.20 L 31.60 119.40 L 26.70 111.60 L 24.70 107.40 L 21.70 98.40 L 20.80 93.80 L 20.00 84.00 L 20.80 74.20 L 21.70 69.60 L 24.70 60.60 L 26.70 56.40 L 31.60 48.60 L 35.50 43.80 L 39.80 39.50 L 44.60 35.60 L 48.40 33.00 L 56.60 28.70 L 65.60 25.70 L 70.20 24.80 L 80.00 24.00 Z" fill="none" group-id="1,2,3" id="选中背景" node-id="28" stroke="none" target-height="120" target-width="120" target-x="20" target-y="24"></path><path d="M 115.50 89.50 L 115.20 94.40 L 114.20 99.10 L 112.70 103.50 L 110.60 107.70 L 108.00 111.50 L 105.00 115.00 L 101.50 118.00 L 97.70 120.60 L 93.50 122.70 L 89.10 124.20 L 84.40 125.20 L 79.50 125.50 L 74.60 125.20 L 69.90 124.20 L 65.50 122.70 L 61.30 120.60 L 57.50 118.00 L 54.00 115.00 L 51.00 111.50 L 48.40 107.70 L 46.30 103.50 L 44.80 99.10 L 43.80 94.40 L 43.50 89.50 L 43.80 84.60 L 44.80 79.90 L 46.30 75.50 L 48.40 71.30 L 51.00 67.50 L 54.00 64.00 L 57.50 61.00 L 61.30 58.40 L 65.50 56.30 L 69.90 54.80 L 74.60 53.80 L 79.50 53.50 L 84.40 53.80 L 89.10 54.80 L 93.50 56.30 L 97.70 58.40 L 101.50 61.00 L 105.00 64.00 L 108.00 67.50 L 110.60 71.30 L 112.70 75.50 L 114.20 79.90 L 115.20 84.60 L 115.50 89.50 Z" fill="url(#linearGradient-1)" fill-rule="evenodd" group-id="1,2,3" id="椭圆形" node-id="29" stroke="url(#linearGradient-2)" stroke-linecap="butt" stroke-width="1" target-height="72" target-width="72" target-x="43.5" target-y="53.5"></path><path d="M 78.60 32.90 L 80.50 32.90 L 81.80 34.20 L 118.50 114.50 L 118.50 116.40 L 117.20 117.80 L 115.30 117.90 L 79.50 103.90 L 43.70 117.90 L 41.80 117.80 L 40.50 116.40 L 40.50 114.50 L 77.20 34.20 L 78.60 32.90 Z" fill="url(#linearGradient-3)" fill-rule="evenodd" group-id="1,2,3" id="三角形" node-id="30" stroke="url(#linearGradient-4)" stroke-linecap="butt" stroke-width="1" target-height="85" target-width="78" target-x="40.5" target-y="32.9"></path><path d="M 78.90 59.90 L 80.10 59.90 L 80.90 60.70 L 93.70 91.60 L 93.70 92.80 L 92.80 93.60 L 91.70 93.60 L 79.50 88.30 L 67.30 93.60 L 66.20 93.60 L 65.30 92.80 L 65.30 91.60 L 78.10 60.70 L 78.90 59.90 Z" fill="url(#linearGradient-5)" fill-rule="evenodd" group-id="1,2,3" id="三角形" node-id="31" stroke="url(#linearGradient-6)" stroke-linecap="butt" stroke-width="1" target-height="33.699997" target-width="28.399994" target-x="65.3" target-y="59.9"></path></g></g></g></svg>